<svg width="459" height="50" viewBox="0 0 459 50" fill="none" xmlns="http://www.w3.org/2000/svg">
<path d="M70.7485 42.6193C61.8719 42.6193 57.9083 37.252 58.2799 30.0681L61.9131 29.5314C61.3764 35.7244 64.3903 39.3164 70.4595 39.3164C74.2992 39.3164 78.7169 37.8713 78.7169 33.9078C78.7169 30.5222 75.703 30.1094 70.5008 28.7882C63.8949 27.0954 60.2204 25.5678 60.2204 20.6134C60.2204 16.2783 62.9866 12.4386 70.4595 12.4386C78.304 12.4386 81.8134 16.6911 81.8134 23.008L78.1802 23.5035C78.2215 17.9298 75.5378 15.7415 70.4182 15.7415C65.2574 15.7415 63.6472 17.971 63.6472 20.407C63.6472 22.5952 64.9271 23.8338 71.6156 25.3201C78.3453 26.8477 82.185 28.7056 82.185 33.8665C82.185 39.5228 77.5196 42.6193 70.7485 42.6193ZM85.8863 13.0992H89.6021V25.4027H105.787V13.0992H109.502V42H105.787V28.8295H89.6021V42H85.8863V13.0992ZM128.015 42.6606C119.179 42.6606 113.647 36.8391 113.647 27.5496C113.647 18.26 119.179 12.4386 128.015 12.4386C136.85 12.4386 142.383 18.26 142.383 27.5496C142.383 36.8391 136.85 42.6606 128.015 42.6606ZM117.28 27.5496C117.28 34.8161 121.409 39.3576 128.015 39.3576C134.621 39.3576 138.749 34.8161 138.749 27.5496C138.749 20.2831 134.621 15.7415 128.015 15.7415C121.409 15.7415 117.28 20.2831 117.28 27.5496ZM160.068 42.6606C151.233 42.6606 145.701 36.8391 145.701 27.5496C145.701 18.26 151.233 12.4386 160.068 12.4386C168.904 12.4386 174.436 18.26 174.436 27.5496C174.436 36.8391 168.904 42.6606 160.068 42.6606ZM149.334 27.5496C149.334 34.8161 153.463 39.3576 160.068 39.3576C166.674 39.3576 170.803 34.8161 170.803 27.5496C170.803 20.2831 166.674 15.7415 160.068 15.7415C153.463 15.7415 149.334 20.2831 149.334 27.5496ZM198.479 13.0992V16.526H188.529V42H184.813V16.526H174.863V13.0992H198.479ZM230.331 13.0992V16.526H220.381V42H216.665V16.526H206.715V13.0992H230.331ZM233.213 13.0992H236.929V25.4027H253.113V13.0992H256.829V42H253.113V28.8295H236.929V42H233.213V13.0992ZM264.607 28.0863C264.813 34.7748 268.776 39.3576 275.341 39.3576C279.841 39.3576 284.259 37.252 285.993 31.2241L289.296 32.7105C287.19 39.9769 281.245 42.6606 275.341 42.6606C266.919 42.6606 260.973 36.8391 260.973 27.5496C260.973 18.26 266.919 12.4386 275.341 12.4386C284.342 12.4386 289.626 18.0949 289.296 28.0863H264.607ZM264.813 24.7834H285.622C285.126 19.8702 282.236 15.7415 275.341 15.7415C269.561 15.7415 265.763 19.3335 264.813 24.7834ZM300.828 13.0992H320.398V16.6086H304.544V26.2284H317.921V29.7378H304.544V42H300.828V13.0992ZM323.286 13.0992H327.002V42H323.286V13.0992ZM359.162 26.5174V42.578H356.727L356.314 36.7153C354.002 40.8027 350.699 42.6606 345.497 42.6606C336.372 42.6606 331.129 36.7979 331.129 27.5496C331.129 18.4252 337.157 12.4386 345.497 12.4386C352.928 12.4386 357.965 16.2783 359.451 22.5126L356.272 23.5861C354.869 18.3839 351.112 15.7415 345.497 15.7415C339.056 15.7415 334.762 20.7373 334.762 27.5496C334.762 35.0638 338.932 39.3576 345.497 39.3576C351.07 39.3576 355.034 35.6418 356.314 29.6552H345.166V26.5174H359.162ZM374.795 42.6606C366.455 42.6606 363.152 37.0456 363.152 29.7378V13.1405H366.785V28.7469C366.785 36.5088 370.047 39.3576 375.084 39.3576C382.598 39.3576 385.282 32.9995 385.323 27.0542L385.447 13.0992H388.997V42H385.86L385.612 35.3528H385.488C385.282 37.1694 383.052 42.6606 374.795 42.6606ZM411.058 35.6418C411.058 33.082 410.067 29.8204 405.072 29.8204H397.681V42H393.965V13.0992H397.681L406.971 13.1405C413.04 13.1818 416.632 16.4434 416.632 21.3566C416.632 25.1137 414.568 27.6322 411.099 28.6231C414.237 30.5222 414.568 33.5775 414.568 37.0869C414.568 38.2842 414.568 39.1099 417.045 39.1925L418.159 39.2338V42H411.058V35.6418ZM397.681 26.6H406.31C411.058 26.6 412.833 24.7834 412.833 21.6456C412.833 18.3013 410.81 16.3609 406.104 16.3609H397.681V26.6ZM423.867 28.0863C424.074 34.7748 428.037 39.3576 434.602 39.3576C439.102 39.3576 443.52 37.252 445.254 31.2241L448.557 32.7105C446.451 39.9769 440.506 42.6606 434.602 42.6606C426.179 42.6606 420.234 36.8391 420.234 27.5496C420.234 18.26 426.179 12.4386 434.602 12.4386C443.602 12.4386 448.887 18.0949 448.557 28.0863H423.867ZM424.074 24.7834H444.882C444.387 19.8702 441.497 15.7415 434.602 15.7415C428.822 15.7415 425.023 19.3335 424.074 24.7834ZM452.464 13.0992H456.18L455.725 33.9903H452.918L452.464 13.0992ZM451.844 40.1421C451.844 38.5732 452.835 37.6649 454.363 37.6649C455.891 37.6649 456.881 38.6971 456.881 40.1421C456.881 41.6697 455.808 42.7019 454.363 42.7019C452.835 42.7019 451.844 41.6284 451.844 40.1421Z" fill="white"/>
<path d="M2 23.5287C2 25.5504 2.33878 27.6954 3.00906 29.6047C4.02779 32.5065 11.3551 37.8056 8.55888 38.1601C8.34054 38.1877 6.40488 38.8413 6.49031 38.9097C7.42511 39.6575 8.79167 39.7463 9.69768 40.5674C9.89104 40.7426 8.62929 40.8062 8.44356 40.8557C7.63154 41.0722 8.17295 42.0619 8.41473 42.499C8.89357 43.3646 9.53114 43.9084 10.5193 43.9766C13.0307 44.1498 15.5098 44.2901 18.0296 44.3874C18.0464 44.388 19.8636 44.5128 19.8027 44.6469C19.784 44.688 19.6324 45.0076 19.7594 44.9568C20.3807 44.7083 20.9196 44.0954 21.5253 43.7748C22.0346 43.5051 22.4479 43.197 22.8875 42.8306C23.8085 42.0631 24.1847 40.868 24.7975 39.8466C25.5008 38.6745 26.5642 36.457 28.2355 36.6032C29.8223 36.7421 30.7515 38.3931 31.7384 39.4574C32.5136 40.2934 33.1952 40.6838 34.1415 41.226L34.1746 41.2449C35.8786 42.2212 38.8055 44.3445 40.6758 42.7513C41.5772 41.9834 42.243 40.9201 42.9966 40.0124C43.4714 39.4406 44.0595 38.8742 44.3949 38.2033C44.7404 37.5124 44.5321 36.8833 44.294 36.2284C43.9837 35.3751 43.6453 34.6011 43.6453 33.6698C43.6453 32.8932 43.8919 32.1306 43.9048 31.3561C43.9251 30.1378 42.9561 29.3647 42.2759 28.401C41.7135 27.6044 41.0027 26.44 40.9209 25.4747C40.8124 24.1951 40.0716 23.1689 38.8595 22.6638C38.3033 22.432 36.0525 22.57 36.7693 21.6259C38.4134 19.4605 40.7035 17.2273 41.1371 14.44C41.3851 12.8453 40.1079 12.223 38.8162 11.6651C35.7467 10.339 32.6084 11.4056 29.432 11.4056C24.5899 11.4056 19.78 11.136 14.9592 11.7948C14.3664 11.8758 12.5512 11.9644 12.3933 12.8327C12.302 13.3351 12.4568 13.9163 12.4798 14.4183C12.5371 15.6703 12.6049 17.2969 11.7879 18.3393C10.82 19.5741 9.23312 20.2009 7.8165 20.7322C6.13454 21.3629 4.39434 21.8227 2.72076 22.4764C2.08945 22.723 2 22.8637 2 23.5287Z" stroke="white" stroke-width="3" stroke-linecap="round"/>
<path d="M30.542 20.4871C29.1939 22.5972 27.5014 24.4589 26.1526 26.5631C25.2867 27.9138 24.413 29.2108 23.2767 30.3471" stroke="white" stroke-width="3" stroke-linecap="round"/>
<path d="M23.4065 21.006C25.4439 23.6547 27.5952 26.2207 29.6554 28.8551C30.0541 29.3648 30.4879 29.9208 31.0321 30.2894C31.1849 30.3929 31.2395 30.315 31.3204 30.4768" stroke="white" stroke-width="3" stroke-linecap="round"/>
</svg>
